<svg viewBox="0 0 6962.4 3000" xmlns="http://www.w3.org/2000/svg" xml:space="preserve">
  <g>
    <path fill="#1c2b33" d="M2821.4 1032.1h188.1l319.8 578.5 319.8-578.5h184v950.6h-153.4v-728.5l-280.4 504.5h-143.9L2975 1254.2v728.5h-153.4v-950.6zM4328 1999.7c-71.1 0-133.5-15.7-187.4-47.2-53.9-31.5-95.9-75-125.9-130.7-30.1-55.7-45.2-119.5-45.2-191.5 0-72.9 14.7-137.4 44.1-193.5 29.4-56.1 70.3-100 122.6-131.7 52.3-31.7 112.4-47.5 180.3-47.5 67.4 0 125.5 16 174.2 47.9 48.7 31.9 86.1 76.6 112.4 134.1 26.2 57.5 39.4 124.9 39.4 202.3v42.1h-520.8c9.5 58 32.9 103.6 70.3 136.8 37.3 33.3 84.5 49.9 141.6 49.9 45.7 0 85.1-6.8 118.1-20.4 33-13.6 64-34.2 93-61.8l81.5 99.8c-81.1 74.3-180.5 111.4-298.2 111.4zm112.1-563.9c-32.1-32.8-74.2-49.2-126.3-49.2-50.7 0-93.1 16.8-127.3 50.2-34.2 33.5-55.8 78.5-64.8 135.1h373.4c-4.6-57.9-22.9-103.3-55-136.1zM4828.5 1400.1h-141.2v-125.6h141.2v-207.8h148v207.8H5191v125.6h-214.6v318.4c0 53 9.1 90.8 27.2 113.4 18.1 22.6 49.1 34 93 33.9 19.5 0 36-.8 49.6-2.4 13.6-1.6 28.5-3.7 44.8-6.5v124.3c-18.6 5.4-37.5 9.5-56.7 12.2-21.9 3.2-44 4.8-66.2 4.8-159.8 0-239.7-87.4-239.7-262.1l.1-336zM5962.4 1982.7h-145.3v-99.1c-25.8 37.1-58.6 65.8-98.4 85.9-39.8 20.1-85.1 30.2-135.8 30.2-62.5 0-117.8-16-166-47.9s-86.1-75.8-113.7-131.7c-27.6-55.9-41.4-119.8-41.4-191.8 0-72.4 14-136.5 42.1-192.2 28.1-55.7 66.9-99.3 116.4-131 49.6-31.7 106.5-47.5 170.8-47.5 48.4 0 91.9 9.4 130.4 28.2 38 18.4 70.8 45.8 95.7 79.8v-91h145.3v708.1zm-148.1-460.3c-15.9-40.3-40.9-72.1-75-95.4-34.2-23.3-73.7-35-118.5-35-63.4 0-113.8 21.3-151.4 63.8-37.6 42.5-56.4 100-56.4 172.5 0 72.9 18.1 130.6 54.3 173.1 36.2 42.6 85.3 63.8 147.3 63.8 45.7 0 86.4-11.8 122.2-35.3 35.8-23.5 61.6-55.2 77.4-95.1l.1-212.4z"/>
  </g>
  <g>
    <linearGradient id="meta-linear-gradient-1" gradientUnits="userSpaceOnUse" x1="1848.577" y1="1486.235" x2="1511.482" y2="1927.946" gradientTransform="matrix(1 0 0 -1 0 2997.89)">
      <stop offset=".001" stop-color="#0867df"/>
      <stop offset=".454" stop-color="#0668e1"/>
      <stop offset=".859" stop-color="#0064e0"/>
    </linearGradient>
    <path d="M1432.4 1000h-1.4l-2 163.5h1.4c107.6 0 191 84.8 372.4 390.3l11.1 18.6.7 1.2 101.5-152.3-.7-1.2c-23.9-38.9-46.9-74.6-68.9-107.3-25.5-37.8-49.9-71.6-73.6-101.8-120-152.8-220.4-211-340.5-211z" fill="url(#meta-linear-gradient-1)"/>
    <linearGradient id="meta-linear-gradient-2" gradientUnits="userSpaceOnUse" x1="1192.32" y1="1772.372" x2="1423.42" y2="1947.821" gradientTransform="matrix(1 0 0 -1 0 2997.89)">
      <stop offset=".132" stop-color="#0064df"/>
      <stop offset=".999" stop-color="#0064e0"/>
    </linearGradient>
    <path d="M1431 1000c-120.7.6-227.3 78.6-304.4 198-.2.3-.5.7-.7 1.1l141.4 77c.2-.3.5-.7.7-1 45-67.7 101-110.9 161-111.6h1.4l2.1-163.4c-.6-.1-1.1-.1-1.5-.1z" fill="url(#meta-linear-gradient-2)"/>
    <linearGradient id="meta-linear-gradient-3" gradientUnits="userSpaceOnUse" x1="1094.367" y1="1514.907" x2="1187.069" y2="1748.267" gradientTransform="matrix(1 0 0 -1 0 2997.89)">
      <stop offset=".015" stop-color="#0072ec"/>
      <stop offset=".688" stop-color="#0064df"/>
    </linearGradient>
    <path d="M1126.6 1198.1c-.2.3-.5.7-.7 1.1-50.6 78.8-88.4 175.5-108.7 279.8-.1.5-.2.9-.3 1.4l158.9 37.5c.1-.5.2-.9.2-1.4 17-91.7 49.3-176.7 91.3-240.3.2-.3.5-.7.7-1l-141.4-77.1z" fill="url(#meta-linear-gradient-3)"/>
    <linearGradient id="meta-linear-gradient-4" gradientUnits="userSpaceOnUse" x1="1081.778" y1="1346.324" x2="1092.505" y2="1488.844" gradientTransform="matrix(1 0 0 -1 0 2997.89)">
      <stop offset=".073" stop-color="#007cf6"/>
      <stop offset=".994" stop-color="#0072ec"/>
    </linearGradient>
    <path d="m1176 1516.4-158.8-37.5c-.1.5-.2.9-.3 1.4-11.1 57.4-16.8 115.7-16.9 174.1v1.4l162.9 14.6v-1.4c-.1-3.4-.1-6.8-.1-10.3.1-47.3 4.4-94.4 13-140.9 0-.5.1-1 .2-1.4z" fill="url(#meta-linear-gradient-4)"/>
    <linearGradient id="meta-linear-gradient-5" gradientUnits="userSpaceOnUse" x1="1087.676" y1="1268.91" x2="1080.004" y2="1326.01" gradientTransform="matrix(1 0 0 -1 0 2997.89)">
      <stop offset=".073" stop-color="#007ff9"/>
      <stop offset="1" stop-color="#007cf6"/>
    </linearGradient>
    <path d="M1167.9 1721.2c-2.9-16.8-4.6-33.8-5-50.8v-1.4l-162.9-14.6v1.5c0 36.4 3 70.4 8.9 101.9.1.5.2.9.3 1.4l158.9-36.6c-.1-.5-.2-1-.2-1.4z" fill="url(#meta-linear-gradient-5)"/>
    <linearGradient id="meta-linear-gradient-6" gradientUnits="userSpaceOnUse" x1="1083.172" y1="1253.911" x2="1130.989" y2="1152.493" gradientTransform="matrix(1 0 0 -1 0 2997.89)">
      <stop offset=".073" stop-color="#007ff9"/>
      <stop offset="1" stop-color="#0082fb"/>
    </linearGradient>
    <path d="M1205 1805.5c-17.7-19.3-30.3-47.3-36.9-83-.1-.5-.2-.9-.2-1.4l-158.9 36.6c.1.5.2.9.3 1.4 12 63.1 35.6 115.6 69.3 155.4.3.4.6.7.9 1.1l126.5-109.1c-.4-.3-.7-.7-1-1z" fill="url(#meta-linear-gradient-6)"/>
    <path fill="#0082fb" d="M1675.9 1353.4c-95.8 146.9-153.8 239.1-153.8 239.1-127.6 200-171.7 244.8-242.8 244.8-29.6 0-54.4-10.6-73.4-30.7-.3-.3-.6-.7-.9-1l-126.5 109c.3.4.6.7.9 1.1 46.6 54.3 112.3 84.4 193.7 84.4 123.1 0 211.6-58 369-333.1 0 0 65.6-115.8 110.7-195.6-28-45.3-53.4-84.3-76.9-118z"/>
    <linearGradient id="meta-linear-gradient-7" gradientUnits="userSpaceOnUse" x1="1818.104" y1="1744.63" x2="1881.319" y2="1832.06" gradientTransform="matrix(1 0 0 -1 0 2997.89)">
      <stop offset=".28" stop-color="#007ff8"/>
      <stop offset=".914" stop-color="#0082fb"/>
    </linearGradient>
    <path d="m1846.6 1121.5-1 1c-25.2 26.8-49.3 56.7-72.8 88.5 23.7 30.2 48.2 64 73.7 101.9 30.1-46.4 58.2-84.1 85.7-112.9.3-.3.6-.7 1-1l-86.6-77.5z" fill="url(#meta-linear-gradient-7)"/>
    <path fill="#0082fb" d="M2311.6 1107.1c-66.8-67.5-146.4-107.1-231.6-107.1-89.8 0-165.3 49.2-233.4 121.5l-1 1 86.6 77.4c.3-.3.6-.7 1-1 44.9-46.7 88.3-70 136.4-70 51.8 0 100.3 24.4 142.3 67.2l1 1 99.6-89c-.3-.4-.6-.7-.9-1z"/>
    <linearGradient id="meta-linear-gradient-8" gradientUnits="userSpaceOnUse" x1="2298.731" y1="1857.943" x2="2430.977" y2="1371.467" gradientTransform="matrix(1 0 0 -1 0 2997.89)">
      <stop offset="0" stop-color="#0082fb"/>
      <stop offset="1" stop-color="#0081fa"/>
    </linearGradient>
    <path d="M2504.7 1632.8c-3.7-216.7-79.6-410.4-192.1-524.8l-1-1-99.6 89 1 1c84.7 87 142.7 248.7 148 435.7v1.4h143.7v-1.3z" fill="url(#meta-linear-gradient-8)"/>
    <linearGradient id="meta-linear-gradient-9" gradientUnits="userSpaceOnUse" x1="2462.905" y1="1352.856" x2="2379.212" y2="1183.727" gradientTransform="matrix(1 0 0 -1 0 2997.89)">
      <stop offset=".062" stop-color="#0081fa"/>
      <stop offset="1" stop-color="#0080f9"/>
    </linearGradient>
    <path d="M2504.7 1634.3v-1.4H2361v1.4c.2 8.8.4 17.6.4 26.5 0 51-7.6 92.2-23.1 121.9-.2.4-.5.9-.7 1.3l107.1 111.4c.3-.4.5-.8.8-1.2 38.9-60 59.3-143.4 59.3-244.5 0-5.2 0-10.3-.1-15.4z" fill="url(#meta-linear-gradient-9)"/>
    <linearGradient id="meta-linear-gradient-a" gradientUnits="userSpaceOnUse" x1="2312.694" y1="1094.061" x2="2390.928" y2="1147.347" gradientTransform="matrix(1 0 0 -1 0 2997.89)">
      <stop offset="0" stop-color="#027af3"/>
      <stop offset="1" stop-color="#0080f9"/>
    </linearGradient>
    <path d="M2338.3 1782.6c-.2.4-.5.9-.7 1.3-13.4 25.1-32.5 41.8-57.5 49.1l48.8 153.9c6.5-2.2 12.8-4.7 18.9-7.4 1.8-.8 3.6-1.7 5.4-2.5 1-.5 2.1-1 3.1-1.5 32.3-16.1 59.6-39.8 81.7-70.4 1.3-1.9 2.7-3.8 4-5.7.9-1.4 1.8-2.7 2.7-4.1.3-.4.5-.8.8-1.2l-107.2-111.5z" fill="url(#meta-linear-gradient-a)"/>
    <linearGradient id="meta-linear-gradient-b" gradientUnits="userSpaceOnUse" x1="2189.993" y1="1083.649" x2="2298.709" y2="1083.649" gradientTransform="matrix(1 0 0 -1 0 2997.89)">
      <stop offset="0" stop-color="#0377ef"/>
      <stop offset=".999" stop-color="#0279f1"/>
    </linearGradient>
    <path d="M2249 1837.2c-16.4 0-30.8-2.4-45-8.8l-50 157.6c28.1 9.6 58.1 13.9 91.5 13.9 30.8 0 59.1-4.6 84.7-13.5l-48.8-153.9c-10.5 3.3-21.5 4.8-32.4 4.7z" fill="url(#meta-linear-gradient-b)"/>
    <linearGradient id="meta-linear-gradient-c" gradientUnits="userSpaceOnUse" x1="2095.477" y1="1143.523" x2="2173.635" y2="1097.54" gradientTransform="matrix(1 0 0 -1 0 2997.89)">
      <stop offset=".002" stop-color="#0471e9"/>
      <stop offset="1" stop-color="#0377ef"/>
    </linearGradient>
    <path d="M2148.9 1783.3c-.3-.4-.6-.7-.9-1.1l-115.1 119.7c.3.3.6.7 1 1 40 42.6 78.2 69 121.5 83.5l50-157.5c-18.4-7.7-36-21.9-56.5-45.6z" fill="url(#meta-linear-gradient-c)"/>
    <linearGradient id="meta-linear-gradient-d" gradientUnits="userSpaceOnUse" x1="1857.06" y1="1482.584" x2="2107.431" y2="1167.792" gradientTransform="matrix(1 0 0 -1 0 2997.89)">
      <stop offset=".277" stop-color="#0867df"/>
      <stop offset="1" stop-color="#0471e9"/>
    </linearGradient>
    <path d="M2148 1782.3c-34.5-40.1-77.2-107-144.4-215l-87.5-146-.7-1.2-101.6 152.3.7 1.2 62 104.3c60.1 100.6 109.1 173.4 156.3 224 .3.3.6.7 1 1l115-119.6c-.2-.3-.5-.7-.8-1z" fill="url(#meta-linear-gradient-d)"/>
  </g>
</svg>
